<svg xmlns="http://www.w3.org/2000/svg" viewBox="0 0 512 512" role="img" aria-label="Hockey sticks and puck icon">
  <!-- Attribution: Ice hockey icons created by Muhammad_Usman - Flaticon (https://www.flaticon.com/free-icons/ice-hockey) -->
  <g transform="translate(256 256)">
    <g transform="rotate(-33)">
      <rect x="-34" y="-222" width="68" height="230" rx="20" fill="#e6e6e6"/>
      <rect x="-34" y="8" width="68" height="34" fill="#ff3b30"/>
      <rect x="-34" y="42" width="68" height="198" rx="20" fill="#ffb020"/>
      <rect x="-34" y="174" width="180" height="100" rx="50" fill="#ff911a"/>
      <rect x="-52" y="-260" width="104" height="62" rx="24" fill="#ff3b30"/>
    </g>
    <g transform="rotate(33)">
      <rect x="-34" y="-222" width="68" height="230" rx="20" fill="#e6e6e6"/>
      <rect x="-34" y="8" width="68" height="34" fill="#ff3b30"/>
      <rect x="-34" y="42" width="68" height="198" rx="20" fill="#ffb020"/>
      <rect x="-146" y="174" width="180" height="100" rx="50" fill="#ff911a"/>
      <rect x="-52" y="-260" width="104" height="62" rx="24" fill="#ff3b30"/>
    </g>
  </g>
  <ellipse cx="256" cy="122" rx="92" ry="42" fill="#69656e"/>
  <path d="M164 122v37c0 23 41 42 92 42s92-19 92-42v-37c0 23-41 42-92 42s-92-19-92-42z" fill="#303033"/>
</svg>
